<svg width="24" height="24" viewBox="0 0 24 24" fill="none" xmlns="http://www.w3.org/2000/svg">
<path d="M5 21.2727V5.72727H3V21.2727H5ZM5 5.72727C5 5.45819 5.30508 5 6 5V3C4.48578 3 3 4.08847 3 5.72727H5ZM6 5H18V3H6V5ZM18 5C18.6949 5 19 5.45819 19 5.72727H21C21 4.08847 19.5142 3 18 3V5ZM19 5.72727V21.2727H21V5.72727H19ZM19 21.2727C19 21.5418 18.6949 22 18 22V24C19.5142 24 21 22.9115 21 21.2727H19ZM18 22H6V24H18V22ZM6 22C5.30508 22 5 21.5418 5 21.2727H3C3 22.9115 4.48578 24 6 24V22ZM11 23V4H9V23H11Z" fill="white"/>
<path d="M1 1H23" stroke="white" stroke-width="2" stroke-linecap="round" stroke-linejoin="round"/>
</svg>
